<?xml version="1.0" encoding="UTF-8"?>
<svg id="Layer_2" xmlns="http://www.w3.org/2000/svg" viewBox="0 0 688.07 136.94">
  <defs>
    <style>
      .cls-1 {
        fill: #defcab;
      }

      .cls-2 {
        fill: #515e4f;
      }

      .cls-3 {
        fill: #21211d;
      }
    </style>
  </defs>
  <g id="Layer_1-2" data-name="Layer_1">
    <g>
      <g>
        <path class="cls-3" d="M173.45,58.95v-20.29h16.47V15.78l23.06-7.46v30.34h30.34v20.29h-30.34v33.81c0,9.83,3.93,14.74,11.79,14.74,4.04,0,9.13-1.73,15.26-5.2l7.8,18.55c-7.63,4.97-16.42,7.46-26.36,7.46-21.04,0-31.56-12.37-31.56-37.11v-32.25h-16.47Z"/>
        <path class="cls-3" d="M274.19,27.74c-3.93,0-7.26-1.33-9.97-3.99-2.72-2.66-4.07-5.95-4.07-9.88s1.36-7.22,4.07-9.88c2.71-2.66,6.04-3.99,9.97-3.99s7.43,1.33,10.14,3.99c2.71,2.66,4.08,5.96,4.08,9.88s-1.36,7.23-4.08,9.88c-2.72,2.66-6.1,3.99-10.14,3.99ZM262.75,126.4V38.67h23.06v87.74h-23.06Z"/>
        <path class="cls-3" d="M376.32,91.55l20.81,6.94c-3.24,9.02-8.73,16.24-16.47,21.67-7.75,5.43-16.76,8.15-27.05,8.15-13.41,0-24.57-4.39-33.46-13.18-8.9-8.78-13.35-19.59-13.35-32.42s4.45-23.84,13.35-32.68c8.9-8.84,20.05-13.26,33.46-13.26,10.17,0,19.16,2.75,26.96,8.24,7.8,5.49,13.32,12.74,16.56,21.76l-20.81,6.94c-1.85-5.08-4.77-9.1-8.76-12.05-3.99-2.95-8.64-4.42-13.96-4.42-7.05,0-12.8,2.4-17.25,7.2-4.45,4.8-6.68,10.9-6.68,18.29s2.22,13.15,6.68,17.95c4.45,4.8,10.2,7.2,17.25,7.2,5.32,0,9.97-1.47,13.96-4.42,3.99-2.95,6.91-6.91,8.76-11.88Z"/>
        <path class="cls-3" d="M478.1,126.4l-21.85-33.98h-17.17v33.98h-23.06V5.03h23.06v67.62h16.82l20.29-33.99h24.79l-25.66,43,28.96,44.73h-26.18Z"/>
        <path class="cls-2" d="M516.07,59.13v-20.46h76.12v15.78l-44.91,51.5h44.91v20.46h-76.12v-15.61l45.08-51.67h-45.08Z"/>
        <path class="cls-2" d="M624.96,27.74c-3.93,0-7.26-1.33-9.97-3.99-2.72-2.66-4.07-5.95-4.07-9.88s1.36-7.22,4.07-9.88c2.71-2.66,6.04-3.99,9.97-3.99s7.43,1.33,10.14,3.99c2.71,2.66,4.08,5.96,4.08,9.88s-1.36,7.23-4.08,9.88c-2.72,2.66-6.1,3.99-10.14,3.99ZM613.52,126.4V38.67h23.06v87.74h-23.06Z"/>
        <path class="cls-2" d="M663.37,124.15c-2.83-2.77-4.25-6.13-4.25-10.06s1.41-7.28,4.25-10.06c2.83-2.77,6.27-4.16,10.32-4.16s7.31,1.39,10.14,4.16c2.83,2.77,4.25,6.13,4.25,10.06s-1.42,7.28-4.25,10.06c-2.83,2.77-6.21,4.16-10.14,4.16s-7.49-1.39-10.32-4.16Z"/>
      </g>
      <g>
        <rect class="cls-2" y="17.63" width="119.31" height="119.31" rx="8.73" ry="8.73"/>
        <path class="cls-1" d="M82.34,47.21c-.5-3.41-3.43-6.03-6.98-6.03h-11.61c-.09.55-.29,1.07-.57,1.53h-.11v.16c-.78,1.19-2.11,1.98-3.62,1.98-2.16,0-3.96-1.61-4.3-3.68h-11.61c-3.9,0-7.07,3.16-7.07,7.07v56.55c0,.91.18,1.77.49,2.57.5,3.41,3.43,6.03,6.98,6.03h11.61c.09-.55.29-1.07.57-1.53h.11v-.16c.78-1.19,2.11-1.99,3.62-1.99,2.16,0,3.96,1.61,4.3,3.68h11.61c3.9,0,7.07-3.16,7.07-7.07v-56.55c0-.91-.18-1.77-.49-2.57ZM56.24,98.72v-35.81c0-3.82,3.04-6.93,6.83-7.06v35.81c0,3.82-3.04,6.93-6.83,7.06Z"/>
      </g>
    </g>
  </g>
</svg>